<svg id="Flat" height="512" viewBox="0 0 512 512" width="512" xmlns="http://www.w3.org/2000/svg"><path d="m440 376h-24l-88-200h-45.49a64 64 0 0 1 -45.255-18.745l-26.51-26.51a64 64 0 0 1 -18.745-45.255v-30.863a16 16 0 0 0 -27.314-11.313l-108.686 108.686-10.535 10.535a64 64 0 0 0 0 90.51l78.059 78.055a16 16 0 0 0 11.313 4.686h25.163a16 16 0 0 1 16 16v25.583a16 16 0 0 0 4.686 11.313l66.514 66.518a112 112 0 0 0 79.2 32.8h129.6a32 32 0 0 0 32-32v-32a48 48 0 0 0 -48-48z" fill="#606669"/><path d="m232 232 208-208h-224l-96 96z" fill="#f5cbaa"/><path d="m328 192v-48a16 16 0 0 0 -16-16h-24a16 16 0 0 0 -16 16v48z" fill="#fde575"/><path d="m187.314 43.314a16 16 0 0 0 -22.628 0l-108.686 108.686 259.882 259.882a96 96 0 0 0 67.883 28.118h104.235v-16a48 48 0 0 0 -48-48h-24l-88-200h-45.49a64 64 0 0 1 -45.255-18.745l-26.51-26.51a64 64 0 0 1 -18.745-45.255v-30.863a16 16 0 0 0 -4.686-11.313z" fill="#fde575"/><path d="m120 152a63.8 63.8 0 0 1 -18.74 45.26l-45.26-45.26 45.26-45.26a63.8 63.8 0 0 1 18.74 45.26z" fill="#99a2a7"/><path d="m349.12 224h-69.36a95.982 95.982 0 0 1 -67.88-28.12l-39.76-39.76a95.982 95.982 0 0 1 -28.12-67.88v-24.24l20.69-20.69a16 16 0 0 1 27.31 11.32v30.86a64 64 0 0 0 18.75 45.26l26.5 26.5a64 64 0 0 0 45.26 18.75h45.49z" fill="#99a2a7"/><path d="m352 488v-16a8 8 0 0 1 16 0v16z" fill="#99a2a7"/><path d="m416 488v-16a8 8 0 0 1 16 0v16z" fill="#99a2a7"/><path d="m96 352h-72a8 8 0 0 1 0-16h72a8 8 0 0 1 0 16z" fill="#b5b8b9"/><path d="m192 448h-168a8 8 0 0 1 0-16h168a8 8 0 0 1 0 16z" fill="#b5b8b9"/><path d="m144 400h-120a8 8 0 0 1 0-16h120a8 8 0 0 1 0 16z" fill="#b5b8b9"/><path d="m416 376h-19.119a32 32 0 0 1 -29.29-19.112l-79.591-180.888h40z" fill="#ebd46c"/><g fill="#606669"><path d="m376 264h-88a8 8 0 0 1 0-16h88a8 8 0 0 1 0 16z"/><path d="m360 232h-88a8 8 0 0 1 0-16h88a8 8 0 0 1 0 16z"/><path d="m392 296h-88a8 8 0 0 1 0-16h88a8 8 0 0 1 0 16z"/><path d="m408 328h-88a8 8 0 0 1 0-16h88a8 8 0 0 1 0 16z"/></g><path d="m69.66 229.66-23.79 23.79-.41-.41a64.156 64.156 0 0 1 -9.59-12.23l22.47-22.47a8 8 0 0 1 11.32 11.32z" fill="#99a2a7"/><path d="m117.66 277.66-23.79 23.79-11.32-11.32 23.79-23.79a8 8 0 0 1 11.32 11.32z" fill="#99a2a7"/><path d="m194.34 402.34 24-24a8 8 0 0 1 11.32 11.32l-24 24z" fill="#99a2a7"/><path d="m277.66 437.66-23.73 23.73q-3.48-2.94-6.73-6.19l-4.86-4.86 24-24a8 8 0 0 1 11.32 11.32z" fill="#99a2a7"/></svg>